<svg width="100" height="115" viewBox="0 0 100 115" fill="none" xmlns="http://www.w3.org/2000/svg">
<path d="M70.0102 67.8517C63.611 67.8517 60.513 71.4322 50 71.4322C39.487 71.4322 36.4398 67.8517 29.9898 67.8517C13.4332 67.8517 0 81.2849 0 97.8415V103.555C0 109.472 4.79939 114.271 10.7161 114.271H89.2839C95.2006 114.271 100 109.472 100 103.555V97.8415C100 81.2849 86.5668 67.8517 70.0102 67.8517ZM89.2839 103.555H10.7161V97.8415C10.7161 87.227 19.3753 78.5678 29.9898 78.5678C33.2402 78.5678 38.5475 82.1483 50 82.1483C61.5287 82.1483 66.709 78.5678 70.0102 78.5678C80.6247 78.5678 89.2839 87.227 89.2839 97.8415V103.555ZM50 64.2712C67.7501 64.2712 82.1483 49.873 82.1483 32.1229C82.1483 14.3728 67.7501 0 50 0C32.2499 0 17.8517 14.3982 17.8517 32.1483C17.8517 49.8984 32.2499 64.2712 50 64.2712ZM50 10.7161C61.808 10.7161 71.4322 20.3403 71.4322 32.1483C71.4322 43.9563 61.808 53.5805 50 53.5805C38.192 53.5805 28.5678 43.9563 28.5678 32.1483C28.5678 20.3403 38.192 10.7161 50 10.7161Z" fill="#ff1313"/>
</svg>
