<svg width="46" height="51" viewBox="0 0 46 51" fill="none" xmlns="http://www.w3.org/2000/svg">
<path d="M35.5 5.33331V7.83331H30.5V5.33331H15.5V7.83331H10.5V5.33331C10.5 4.00723 11.0268 2.73546 11.9645 1.79778C12.9021 0.860097 14.1739 0.333313 15.5 0.333313H30.5C31.8261 0.333313 33.0978 0.860097 34.0355 1.79778C34.9732 2.73546 35.5 4.00723 35.5 5.33331Z" fill="black"/>
<path d="M43 10.3333H3C2.33696 10.3333 1.70107 10.5967 1.23223 11.0655C0.763392 11.5344 0.5 12.1703 0.5 12.8333C0.5 13.4964 0.763392 14.1322 1.23223 14.6011C1.70107 15.0699 2.33696 15.3333 3 15.3333H5.5V45.3333C5.5 46.6594 6.02678 47.9312 6.96447 48.8688C7.90215 49.8065 9.17392 50.3333 10.5 50.3333H35.5C36.8261 50.3333 38.0979 49.8065 39.0355 48.8688C39.9732 47.9312 40.5 46.6594 40.5 45.3333V15.3333H43C43.663 15.3333 44.2989 15.0699 44.7678 14.6011C45.2366 14.1322 45.5 13.4964 45.5 12.8333C45.5 12.1703 45.2366 11.5344 44.7678 11.0655C44.2989 10.5967 43.663 10.3333 43 10.3333ZM20.5 37.8333C20.5 38.4964 20.2366 39.1322 19.7678 39.6011C19.2989 40.0699 18.663 40.3333 18 40.3333C17.337 40.3333 16.7011 40.0699 16.2322 39.6011C15.7634 39.1322 15.5 38.4964 15.5 37.8333V22.8333C15.5 22.1703 15.7634 21.5344 16.2322 21.0655C16.7011 20.5967 17.337 20.3333 18 20.3333C18.663 20.3333 19.2989 20.5967 19.7678 21.0655C20.2366 21.5344 20.5 22.1703 20.5 22.8333V37.8333ZM30.5 37.8333C30.5 38.4964 30.2366 39.1322 29.7678 39.6011C29.2989 40.0699 28.663 40.3333 28 40.3333C27.337 40.3333 26.7011 40.0699 26.2322 39.6011C25.7634 39.1322 25.5 38.4964 25.5 37.8333V22.8333C25.5 22.1703 25.7634 21.5344 26.2322 21.0655C26.7011 20.5967 27.337 20.3333 28 20.3333C28.663 20.3333 29.2989 20.5967 29.7678 21.0655C30.2366 21.5344 30.5 22.1703 30.5 22.8333V37.8333Z" fill="black"/>
</svg>
