<svg width="26" height="25" viewBox="0 0 26 25" fill="none" xmlns="http://www.w3.org/2000/svg">
<path d="M25.6585 14.8398C25.3088 14.219 24.6485 13.8334 23.9352 13.8334C23.5983 13.8334 23.2638 13.9215 22.9679 14.0881L17.2101 17.3307C17.1349 17.373 17.0807 17.4446 17.0601 17.5283C16.9596 17.9383 16.7232 18.5106 16.1679 18.9092C15.5531 19.3503 14.7215 19.4422 13.7082 19.1824C13.7021 19.1809 13.6961 19.1791 13.6908 19.1775L10.3692 18.1461C10.1684 18.0838 10.0558 17.8696 10.1181 17.6689C10.168 17.5082 10.3144 17.4003 10.4823 17.4003C10.5204 17.4003 10.5586 17.4061 10.5956 17.4176L13.8999 18.4436C13.9051 18.4452 13.9105 18.4467 13.9159 18.4481C14.6952 18.6448 15.3037 18.59 15.723 18.2894C16.2526 17.9094 16.3459 17.2413 16.3569 17.1432C16.3573 17.14 16.3577 17.1369 16.3579 17.1337C16.3581 17.1321 16.3582 17.1312 16.3582 17.131C16.3583 17.13 16.3584 17.129 16.3584 17.128C16.3585 17.1273 16.3585 17.1267 16.3586 17.126C16.4216 16.3022 15.89 15.5416 15.0936 15.3167L15.079 15.3122C15.0547 15.3043 12.6103 14.5059 11.0529 14.0615C10.8799 14.0122 10.4031 13.8974 9.71352 13.8974C8.74912 13.8974 7.31042 14.126 5.93046 15.2169L0.203551 19.8493C0.0725456 19.9552 0.0493128 20.146 0.150982 20.2804L3.25183 24.3763C3.30211 24.4426 3.37673 24.4861 3.45919 24.4972C3.47299 24.4991 3.48679 24.5 3.50066 24.5C3.56911 24.5 3.63617 24.4774 3.69103 24.4351L7.68513 21.3597C7.77487 21.2907 7.89519 21.2647 8.00546 21.2907L14.4565 22.8152C14.9349 22.9283 15.4519 22.8553 15.8798 22.6141L24.9066 17.5304C25.8556 16.9957 26.1929 15.7889 25.6585 14.8398Z" fill="black"/>
<path d="M22.0709 0.5H10.2811C9.89814 0.5 9.58759 0.810487 9.58759 1.19352V4.34929C9.58759 4.73232 9.89814 5.0428 10.2811 5.0428H10.5401V11.7438C10.5401 12.1268 10.8506 12.4373 11.2336 12.4373H21.118C21.5011 12.4373 21.8116 12.1268 21.8116 11.7438V5.04273H22.0708C22.4538 5.04273 22.7643 4.73225 22.7643 4.34922V1.19352C22.7644 0.810487 22.4538 0.5 22.0709 0.5ZM17.6348 6.69046H14.717C14.4111 6.69046 14.1622 6.44155 14.1622 6.13564C14.1622 5.82974 14.4111 5.58083 14.717 5.58083H17.6348C17.9407 5.58083 18.1896 5.82974 18.1896 6.13564C18.1896 6.44155 17.9407 6.69046 17.6348 6.69046ZM21.3773 3.6557H21.1181H11.2336H10.9746V1.88703H21.3773V3.6557Z" fill="black"/>
</svg>
