<svg width="28" height="25" viewBox="0 0 28 25" fill="none" xmlns="http://www.w3.org/2000/svg">
<path d="M21.9875 4.76138L20.3917 5.80422L15.7682 2.01674L14.914 3.05886L10.276 0.5L0.475281 18.1036L9.3159 23.0254L10.2789 24.5L10.9117 24.0871L10.9567 24.1248L11.0728 23.9833L27.5247 13.2493L21.9875 4.76138ZM1.46225 17.822L10.5583 1.48334L14.4481 3.62782L3.00003 17.6079L7.08216 20.9498L1.46225 17.822ZM4.02183 17.5056L4.96381 16.3546L7.65765 20.4825L4.02183 17.5056ZM18.0295 17.5368C16.4235 18.5818 14.2732 18.1312 13.2268 16.5266C12.1803 14.9199 12.6317 12.7718 14.2384 11.7246C15.8422 10.6767 17.9925 11.1295 19.0397 12.7333C20.0869 14.3393 19.6348 16.4896 18.0295 17.5368ZM5.81797 15.3139L15.8712 3.03854L19.7567 6.21933L5.81797 15.3139ZM15.5338 13.2232L16.184 14.2203L16.3372 14.1303C16.856 13.8291 17.253 13.6956 17.5237 13.7283C17.7944 13.7609 18.0578 13.9707 18.3133 14.3647C18.5883 14.7856 18.6877 15.1427 18.605 15.438C18.5259 15.7305 18.248 16.0353 17.7704 16.3452L17.6333 16.4388L17.925 16.8851L17.47 17.1812L17.1797 16.7349L17.0491 16.8154C16.5759 17.1246 16.1884 17.2596 15.8879 17.224C15.5904 17.1877 15.3095 16.9671 15.0461 16.5651L14.9598 16.4286L15.6332 15.9903L15.6782 16.0607C15.84 16.3053 15.9816 16.4388 16.1064 16.4584C16.2312 16.4794 16.4293 16.3996 16.7015 16.2233L16.8023 16.1616L16.0977 15.081C15.5679 15.4272 15.155 15.5854 14.8618 15.5592C14.5671 15.5346 14.2819 15.3074 14.0062 14.8865C13.7406 14.4794 13.6571 14.1339 13.7522 13.8567C13.8487 13.5795 14.1607 13.2674 14.6891 12.9235L14.4358 12.5352L14.8894 12.2391L15.1441 12.6259C15.6477 12.2986 16.0403 12.1433 16.3219 12.1673C16.6013 12.1898 16.8676 12.3973 17.1231 12.7899L17.1819 12.8792L16.5316 13.3045L16.483 13.2362C16.2893 12.9401 16.0099 12.9118 15.6397 13.1528L15.5338 13.2232ZM15.0773 13.5156L14.9823 13.5824C14.5809 13.8429 14.4844 14.131 14.6934 14.4467C14.909 14.7769 15.2167 14.8125 15.6143 14.5527C15.6172 14.5512 15.6528 14.5316 15.7167 14.4939L15.0773 13.5156ZM17.2559 15.8633L17.3553 15.8009C17.7886 15.5171 17.8836 15.192 17.6413 14.8183C17.5085 14.6165 17.3735 14.5149 17.2334 14.512C17.0955 14.5106 16.8735 14.6086 16.5701 14.8059L17.2559 15.8633Z" fill="black"/>
</svg>
